<?xml version="1.0" standalone="yes"?>

<svg version="1.1" viewBox="0.0 0.0 463.1994750656168 507.6010498687664" fill="none" stroke="none" stroke-linecap="square" stroke-miterlimit="10" xmlns="http://www.w3.org/2000/svg" xmlns:xlink="http://www.w3.org/1999/xlink"><clipPath id="p.0"><path d="m0 0l463.19946 0l0 507.60104l-463.19946 0l0 -507.60104z" clip-rule="nonzero"></path></clipPath><g clip-path="url(#p.0)"><path fill="#000000" fill-opacity="0.0" d="m0 0l463.19946 0l0 507.60104l-463.19946 0z" fill-rule="nonzero"></path><path fill="#cfe2f3" d="m27.598425 238.20735l31.503939 -63.007843l82.44094 0l31.503937 63.007843l-31.503937 63.007828l-82.44094 0z" fill-rule="nonzero"></path><path stroke="#000000" stroke-width="2.0" stroke-linejoin="round" stroke-linecap="butt" d="m27.598425 238.20735l31.503939 -63.007843l82.44094 0l31.503937 63.007843l-31.503937 63.007828l-82.44094 0z" fill-rule="nonzero"></path><path fill="#cfe2f3" d="m160.22572 71.80577l31.503937 -63.007843l82.44093 0l31.503937 63.007843l-31.503937 63.007843l-82.44093 0z" fill-rule="nonzero"></path><path stroke="#000000" stroke-width="2.0" stroke-linejoin="round" stroke-linecap="butt" d="m160.22572 71.80577l31.503937 -63.007843l82.44093 0l31.503937 63.007843l-31.503937 63.007843l-82.44093 0z" fill-rule="nonzero"></path><path fill="#cfe2f3" d="m287.12335 238.20735l31.503937 -63.007843l82.44095 0l31.503937 63.007843l-31.503937 63.007828l-82.44095 0z" fill-rule="nonzero"></path><path stroke="#000000" stroke-width="2.0" stroke-linejoin="round" stroke-linecap="butt" d="m287.12335 238.20735l31.503937 -63.007843l82.44095 0l31.503937 63.007843l-31.503937 63.007828l-82.44095 0z" fill-rule="nonzero"></path><path fill="#cfe2f3" d="m160.22572 413.40683l31.503937 -63.007843l82.44093 0l31.503937 63.007843l-31.503937 63.007843l-82.44093 0z" fill-rule="nonzero"></path><path stroke="#000000" stroke-width="2.0" stroke-linejoin="round" stroke-linecap="butt" d="m160.22572 413.40683l31.503937 -63.007843l82.44093 0l31.503937 63.007843l-31.503937 63.007843l-82.44093 0z" fill-rule="nonzero"></path><path fill="#d9d9d9" d="m105.59843 201.6063l0 0c0 -5.3054047 4.300888 -9.606293 9.6063 -9.606293l0 0c2.5477448 0 4.9911423 1.012085 6.792679 2.813614c1.8015289 1.8015442 2.813614 4.244934 2.813614 6.792679l0 0c0 5.30542 -4.3008804 9.606308 -9.606293 9.606308l0 0c-5.3054123 0 -9.6063 -4.300888 -9.6063 -9.606308z" fill-rule="nonzero"></path><path stroke="#000000" stroke-width="2.0" stroke-linejoin="round" stroke-linecap="butt" d="m105.59843 201.6063l0 0c0 -5.3054047 4.300888 -9.606293 9.6063 -9.606293l0 0c2.5477448 0 4.9911423 1.012085 6.792679 2.813614c1.8015289 1.8015442 2.813614 4.244934 2.813614 6.792679l0 0c0 5.30542 -4.3008804 9.606308 -9.606293 9.606308l0 0c-5.3054123 0 -9.6063 -4.300888 -9.6063 -9.606308z" fill-rule="nonzero"></path><path fill="#d9d9d9" d="m105.59843 241.6063l0 0c0 -5.3054047 4.300888 -9.606293 9.6063 -9.606293l0 0c2.5477448 0 4.9911423 1.012085 6.792679 2.813614c1.8015289 1.8015442 2.813614 4.244934 2.813614 6.792679l0 0c0 5.30542 -4.3008804 9.606308 -9.606293 9.606308l0 0c-5.3054123 0 -9.6063 -4.300888 -9.6063 -9.606308z" fill-rule="nonzero"></path><path stroke="#000000" stroke-width="2.0" stroke-linejoin="round" stroke-linecap="butt" d="m105.59843 241.6063l0 0c0 -5.3054047 4.300888 -9.606293 9.6063 -9.606293l0 0c2.5477448 0 4.9911423 1.012085 6.792679 2.813614c1.8015289 1.8015442 2.813614 4.244934 2.813614 6.792679l0 0c0 5.30542 -4.3008804 9.606308 -9.606293 9.606308l0 0c-5.3054123 0 -9.6063 -4.300888 -9.6063 -9.606308z" fill-rule="nonzero"></path><path fill="#d9d9d9" d="m66.0 220.8189l0 0c0 -5.3054047 4.300888 -9.606293 9.6063 -9.606293l0 0c2.5477448 0 4.99115 1.012085 6.792679 2.813614c1.8015289 1.8015289 2.8136215 4.244934 2.8136215 6.792679l0 0c0 5.30542 -4.300888 9.606308 -9.6063 9.606308l0 0c-5.3054123 0 -9.6063 -4.300888 -9.6063 -9.606308z" fill-rule="nonzero"></path><path stroke="#000000" stroke-width="2.0" stroke-linejoin="round" stroke-linecap="butt" d="m66.0 220.8189l0 0c0 -5.3054047 4.300888 -9.606293 9.6063 -9.606293l0 0c2.5477448 0 4.99115 1.012085 6.792679 2.813614c1.8015289 1.8015289 2.8136215 4.244934 2.8136215 6.792679l0 0c0 5.30542 -4.300888 9.606308 -9.6063 9.606308l0 0c-5.3054123 0 -9.6063 -4.300888 -9.6063 -9.606308z" fill-rule="nonzero"></path><path fill="#000000" fill-opacity="0.0" d="m160.22572 71.80577l-84.62992 139.40158" fill-rule="nonzero"></path><path stroke="#000000" stroke-width="2.0" stroke-linejoin="round" stroke-linecap="butt" d="m160.22572 71.80577l-78.40255 129.1439" fill-rule="evenodd"></path><path fill="#000000" stroke="#000000" stroke-width="2.0" stroke-linecap="butt" d="m78.99935 199.23535l-1.8862457 9.472717l7.53389 -6.0440674z" fill-rule="evenodd"></path><path fill="#000000" fill-opacity="0.0" d="m191.72966 350.399l-69.732285 -102.01576" fill-rule="nonzero"></path><path stroke="#000000" stroke-width="2.0" stroke-linejoin="round" stroke-linecap="butt" d="m191.72966 350.399l-62.960587 -92.10901" fill-rule="evenodd"></path><path fill="#000000" stroke="#000000" stroke-width="2.0" stroke-linecap="butt" d="m131.4963 256.4258l-7.848999 -5.6287994l2.3945541 9.357162z" fill-rule="evenodd"></path><path fill="#000000" fill-opacity="0.0" d="m287.12335 238.20735l-162.2992 -36.598434" fill-rule="nonzero"></path><path stroke="#000000" stroke-width="2.0" stroke-linejoin="round" stroke-linecap="butt" d="m287.12335 238.20735l-150.59314 -33.95871" fill-rule="evenodd"></path><path fill="#000000" stroke="#000000" stroke-width="2.0" stroke-linecap="butt" d="m137.2569 201.0261l-9.580566 1.2259979l8.127197 5.219101z" fill-rule="evenodd"></path><path fill="#000000" fill-opacity="0.0" d="m287.12335 238.20735l-162.2992 3.4015656" fill-rule="nonzero"></path><path stroke="#000000" stroke-width="2.0" stroke-linejoin="round" stroke-linecap="butt" d="m287.12335 238.20735l-150.30183 3.150116" fill-rule="evenodd"></path><path fill="#000000" stroke="#000000" stroke-width="2.0" stroke-linecap="butt" d="m136.75229 238.05473l-9.004982 3.49292l9.143425 3.112564z" fill-rule="evenodd"></path></g></svg>

