<?xml version="1.0" standalone="yes"?>

<svg version="1.1" viewBox="0.0 0.0 463.1994750656168 507.6010498687664" fill="none" stroke="none" stroke-linecap="square" stroke-miterlimit="10" xmlns="http://www.w3.org/2000/svg" xmlns:xlink="http://www.w3.org/1999/xlink"><clipPath id="p.0"><path d="m0 0l463.19946 0l0 507.60104l-463.19946 0l0 -507.60104z" clip-rule="nonzero"></path></clipPath><g clip-path="url(#p.0)"><path fill="#000000" fill-opacity="0.0" d="m0 0l463.19946 0l0 507.60104l-463.19946 0z" fill-rule="nonzero"></path><path fill="#cfe2f3" d="m27.598425 238.20735l31.503939 -63.007843l82.44094 0l31.503937 63.007843l-31.503937 63.007828l-82.44094 0z" fill-rule="nonzero"></path><path stroke="#000000" stroke-width="2.0" stroke-linejoin="round" stroke-linecap="butt" d="m27.598425 238.20735l31.503939 -63.007843l82.44094 0l31.503937 63.007843l-31.503937 63.007828l-82.44094 0z" fill-rule="nonzero"></path><path fill="#cfe2f3" d="m160.22572 71.80577l31.503937 -63.007843l82.44093 0l31.503937 63.007843l-31.503937 63.007843l-82.44093 0z" fill-rule="nonzero"></path><path stroke="#000000" stroke-width="2.0" stroke-linejoin="round" stroke-linecap="butt" d="m160.22572 71.80577l31.503937 -63.007843l82.44093 0l31.503937 63.007843l-31.503937 63.007843l-82.44093 0z" fill-rule="nonzero"></path><path fill="#cfe2f3" d="m287.12335 238.20735l31.503937 -63.007843l82.44095 0l31.503937 63.007843l-31.503937 63.007828l-82.44095 0z" fill-rule="nonzero"></path><path stroke="#000000" stroke-width="2.0" stroke-linejoin="round" stroke-linecap="butt" d="m287.12335 238.20735l31.503937 -63.007843l82.44095 0l31.503937 63.007843l-31.503937 63.007828l-82.44095 0z" fill-rule="nonzero"></path><path fill="#cfe2f3" d="m160.22572 413.40683l31.503937 -63.007843l82.44093 0l31.503937 63.007843l-31.503937 63.007843l-82.44093 0z" fill-rule="nonzero"></path><path stroke="#000000" stroke-width="2.0" stroke-linejoin="round" stroke-linecap="butt" d="m160.22572 413.40683l31.503937 -63.007843l82.44093 0l31.503937 63.007843l-31.503937 63.007843l-82.44093 0z" fill-rule="nonzero"></path><path fill="#000000" fill-opacity="0.0" d="m160.22572 71.80577l-79.55906 94.01575" fill-rule="nonzero"></path><path stroke="#000000" stroke-width="2.0" stroke-linejoin="round" stroke-linecap="butt" d="m160.22572 71.80577l-71.807335 84.85547" fill-rule="evenodd"></path><path fill="#000000" stroke="#000000" stroke-width="2.0" stroke-linecap="butt" d="m85.89666 154.52728l-3.3412857 9.062332l8.384735 -4.7944183z" fill-rule="evenodd"></path><path fill="#000000" fill-opacity="0.0" d="m191.72966 350.399l-31.496063 -147.59056" fill-rule="nonzero"></path><path stroke="#000000" stroke-width="2.0" stroke-linejoin="round" stroke-linecap="butt" d="m191.72966 350.399l-28.991638 -135.85481" fill-rule="evenodd"></path><path fill="#000000" stroke="#000000" stroke-width="2.0" stroke-linecap="butt" d="m165.96875 213.85474l-5.124954 -8.18689l-1.3364868 9.565765z" fill-rule="evenodd"></path><path fill="#000000" fill-opacity="0.0" d="m287.12335 238.20735l-127.62204 -46.04724" fill-rule="nonzero"></path><path stroke="#000000" stroke-width="2.0" stroke-linejoin="round" stroke-linecap="butt" d="m287.12335 238.20735l-116.334305 -41.974533" fill-rule="evenodd"></path><path fill="#000000" stroke="#000000" stroke-width="2.0" stroke-linecap="butt" d="m171.91022 193.12544l-9.658646 0.026977539l7.4163055 6.18779z" fill-rule="evenodd"></path><path fill="#d9d9d9" d="m66.0 220.8189l0 0c0 -5.3054047 4.300888 -9.606293 9.6063 -9.606293l0 0c2.5477448 0 4.99115 1.012085 6.792679 2.813614c1.8015289 1.8015289 2.8136215 4.244934 2.8136215 6.792679l0 0c0 5.30542 -4.300888 9.606308 -9.6063 9.606308l0 0c-5.3054123 0 -9.6063 -4.300888 -9.6063 -9.606308z" fill-rule="nonzero"></path><path stroke="#000000" stroke-width="2.0" stroke-linejoin="round" stroke-linecap="butt" d="m66.0 220.8189l0 0c0 -5.3054047 4.300888 -9.606293 9.6063 -9.606293l0 0c2.5477448 0 4.99115 1.012085 6.792679 2.813614c1.8015289 1.8015289 2.8136215 4.244934 2.8136215 6.792679l0 0c0 5.30542 -4.300888 9.606308 -9.6063 9.606308l0 0c-5.3054123 0 -9.6063 -4.300888 -9.6063 -9.606308z" fill-rule="nonzero"></path><path fill="#d9d9d9" d="m105.59843 241.6063l0 0c0 -5.3054047 4.300888 -9.606293 9.6063 -9.606293l0 0c2.5477448 0 4.9911423 1.012085 6.792679 2.813614c1.8015289 1.8015442 2.813614 4.244934 2.813614 6.792679l0 0c0 5.30542 -4.3008804 9.606308 -9.606293 9.606308l0 0c-5.3054123 0 -9.6063 -4.300888 -9.6063 -9.606308z" fill-rule="nonzero"></path><path stroke="#000000" stroke-width="2.0" stroke-linejoin="round" stroke-linecap="butt" d="m105.59843 241.6063l0 0c0 -5.3054047 4.300888 -9.606293 9.6063 -9.606293l0 0c2.5477448 0 4.9911423 1.012085 6.792679 2.813614c1.8015289 1.8015442 2.813614 4.244934 2.813614 6.792679l0 0c0 5.30542 -4.3008804 9.606308 -9.606293 9.606308l0 0c-5.3054123 0 -9.6063 -4.300888 -9.6063 -9.606308z" fill-rule="nonzero"></path><path fill="#d9d9d9" d="m105.59843 201.6063l0 0c0 -5.3054047 4.300888 -9.606293 9.6063 -9.606293l0 0c2.5477448 0 4.9911423 1.012085 6.792679 2.813614c1.8015289 1.8015442 2.813614 4.244934 2.813614 6.792679l0 0c0 5.30542 -4.3008804 9.606308 -9.606293 9.606308l0 0c-5.3054123 0 -9.6063 -4.300888 -9.6063 -9.606308z" fill-rule="nonzero"></path><path stroke="#000000" stroke-width="2.0" stroke-linejoin="round" stroke-linecap="butt" d="m105.59843 201.6063l0 0c0 -5.3054047 4.300888 -9.606293 9.6063 -9.606293l0 0c2.5477448 0 4.9911423 1.012085 6.792679 2.813614c1.8015289 1.8015442 2.813614 4.244934 2.813614 6.792679l0 0c0 5.30542 -4.3008804 9.606308 -9.606293 9.606308l0 0c-5.3054123 0 -9.6063 -4.300888 -9.6063 -9.606308z" fill-rule="nonzero"></path><path fill="#d9d9d9" d="m71.062996 165.81627l19.212593 0l0 9.385834l-19.212593 0z" fill-rule="nonzero"></path><path stroke="#000000" stroke-width="2.0" stroke-linejoin="round" stroke-linecap="butt" d="m71.062996 165.81627l19.212593 0l0 9.385834l-19.212593 0z" fill-rule="nonzero"></path><path fill="#d9d9d9" d="m154.70198 183.84474l9.606293 16.629929l-8.125977 4.6929016l-9.606308 -16.629913z" fill-rule="nonzero"></path><path stroke="#000000" stroke-width="2.0" stroke-linejoin="round" stroke-linecap="butt" d="m154.70198 183.84474l9.606293 16.629929l-8.125977 4.6929016l-9.606308 -16.629913z" fill-rule="nonzero"></path><path fill="#000000" fill-opacity="0.0" d="m80.66929 175.2021l-5.070862 36.0" fill-rule="nonzero"></path><path stroke="#000000" stroke-width="2.0" stroke-linejoin="round" stroke-linecap="butt" d="m80.66929 175.2021l-3.3970947 24.11731" fill-rule="evenodd"></path><path fill="#000000" stroke="#000000" stroke-width="2.0" stroke-linecap="butt" d="m74.001015 198.85863l2.0052261 9.448242l4.5371246 -8.526703z" fill-rule="evenodd"></path><path fill="#000000" fill-opacity="0.0" d="m151.37915 196.85262l-26.582687 4.755905" fill-rule="nonzero"></path><path stroke="#000000" stroke-width="2.0" stroke-linejoin="round" stroke-linecap="butt" d="m151.37914 196.85262l-14.770233 2.6425476" fill-rule="evenodd"></path><path fill="#000000" stroke="#000000" stroke-width="2.0" stroke-linecap="butt" d="m136.02711 196.24332l-8.352547 4.850281l9.516121 1.6533813z" fill-rule="evenodd"></path><path fill="#000000" fill-opacity="0.0" d="m151.37915 196.85262l-26.582687 44.755905" fill-rule="nonzero"></path><path stroke="#000000" stroke-width="2.0" stroke-linejoin="round" stroke-linecap="butt" d="m151.37914 196.85262l-20.454697 34.438538" fill-rule="evenodd"></path><path fill="#000000" stroke="#000000" stroke-width="2.0" stroke-linecap="butt" d="m128.08418 229.60419l-1.794632 9.490494l7.4751434 -6.116562z" fill-rule="evenodd"></path></g></svg>

