<?xml version="1.0" standalone="yes"?>

<svg version="1.1" viewBox="0.0 0.0 737.1548556430446 548.9632545931759" fill="none" stroke="none" stroke-linecap="square" stroke-miterlimit="10" xmlns="http://www.w3.org/2000/svg" xmlns:xlink="http://www.w3.org/1999/xlink"><clipPath id="p.0"><path d="m0 0l737.15485 0l0 548.96326l-737.15485 0l0 -548.96326z" clip-rule="nonzero"></path></clipPath><g clip-path="url(#p.0)"><path fill="#000000" fill-opacity="0.0" d="m0 0l737.15485 0l0 548.96326l-737.15485 0z" fill-rule="nonzero"></path><path fill="#cfe2f3" d="m211.4042 454.6833l0 0c0 -7.4005127 26.996872 -13.399811 60.299194 -13.399811c33.302338 0 60.299225 5.999298 60.299225 13.399811l0 53.599304c0 7.4005127 -26.996887 13.399841 -60.299225 13.399841c-33.302322 0 -60.299194 -5.9993286 -60.299194 -13.399841z" fill-rule="nonzero"></path><path fill="#000000" fill-opacity="0.0" d="m332.00262 454.6833l0 0c0 7.4005127 -26.996887 13.399811 -60.299225 13.399811c-33.302322 0 -60.299194 -5.999298 -60.299194 -13.399811" fill-rule="nonzero"></path><path fill="#000000" fill-opacity="0.0" d="m211.4042 454.6833l0 0c0 -7.4005127 26.996872 -13.399811 60.299194 -13.399811c33.302338 0 60.299225 5.999298 60.299225 13.399811l0 53.599304c0 7.4005127 -26.996887 13.399841 -60.299225 13.399841c-33.302322 0 -60.299194 -5.9993286 -60.299194 -13.399841z" fill-rule="nonzero"></path><path stroke="#000000" stroke-width="2.0" stroke-linejoin="round" stroke-linecap="butt" d="m332.00262 454.6833l0 0c0 7.4005127 -26.996887 13.399811 -60.299225 13.399811c-33.302322 0 -60.299194 -5.999298 -60.299194 -13.399811" fill-rule="nonzero"></path><path stroke="#000000" stroke-width="2.0" stroke-linejoin="round" stroke-linecap="butt" d="m211.4042 454.6833l0 0c0 -7.4005127 26.996872 -13.399811 60.299194 -13.399811c33.302338 0 60.299225 5.999298 60.299225 13.399811l0 53.599304c0 7.4005127 -26.996887 13.399841 -60.299225 13.399841c-33.302322 0 -60.299194 -5.9993286 -60.299194 -13.399841z" fill-rule="nonzero"></path><path fill="#cfe2f3" d="m391.80316 454.6833l0 0c0 -7.4005127 26.996857 -13.399811 60.299194 -13.399811c33.302338 0 60.299194 5.999298 60.299194 13.399811l0 53.599304c0 7.4005127 -26.996857 13.399841 -60.299194 13.399841c-33.302338 0 -60.299194 -5.9993286 -60.299194 -13.399841z" fill-rule="nonzero"></path><path fill="#000000" fill-opacity="0.0" d="m512.40155 454.6833l0 0c0 7.4005127 -26.996857 13.399811 -60.299194 13.399811c-33.302338 0 -60.299194 -5.999298 -60.299194 -13.399811" fill-rule="nonzero"></path><path fill="#000000" fill-opacity="0.0" d="m391.80316 454.6833l0 0c0 -7.4005127 26.996857 -13.399811 60.299194 -13.399811c33.302338 0 60.299194 5.999298 60.299194 13.399811l0 53.599304c0 7.4005127 -26.996857 13.399841 -60.299194 13.399841c-33.302338 0 -60.299194 -5.9993286 -60.299194 -13.399841z" fill-rule="nonzero"></path><path stroke="#000000" stroke-width="2.0" stroke-linejoin="round" stroke-linecap="butt" d="m512.40155 454.6833l0 0c0 7.4005127 -26.996857 13.399811 -60.299194 13.399811c-33.302338 0 -60.299194 -5.999298 -60.299194 -13.399811" fill-rule="nonzero"></path><path stroke="#000000" stroke-width="2.0" stroke-linejoin="round" stroke-linecap="butt" d="m391.80316 454.6833l0 0c0 -7.4005127 26.996857 -13.399811 60.299194 -13.399811c33.302338 0 60.299194 5.999298 60.299194 13.399811l0 53.599304c0 7.4005127 -26.996857 13.399841 -60.299194 13.399841c-33.302338 0 -60.299194 -5.9993286 -60.299194 -13.399841z" fill-rule="nonzero"></path><path fill="#cfe2f3" d="m211.4042 290.71652l26.118103 -52.236176l68.36221 0l26.118103 52.236176l-26.118103 52.236206l-68.36221 0z" fill-rule="nonzero"></path><path stroke="#000000" stroke-width="2.0" stroke-linejoin="round" stroke-linecap="butt" d="m211.4042 290.71652l26.118103 -52.236176l68.36221 0l26.118103 52.236176l-26.118103 52.236206l-68.36221 0z" fill-rule="nonzero"></path><path fill="#cfe2f3" d="m221.00262 79.51706l0 0c0 -28.849266 23.386948 -52.23622 52.236206 -52.23622l0 0c13.853912 0 27.140411 5.503443 36.936615 15.299635c9.796173 9.796192 15.299622 23.08268 15.299622 36.936584l0 0c0 28.849266 -23.386963 52.23622 -52.236237 52.23622l0 0c-28.849258 0 -52.236206 -23.386955 -52.236206 -52.23622z" fill-rule="nonzero"></path><path stroke="#000000" stroke-width="2.0" stroke-linejoin="round" stroke-linecap="butt" d="m221.00262 79.51706l0 0c0 -28.849266 23.386948 -52.23622 52.236206 -52.23622l0 0c13.853912 0 27.140411 5.503443 36.936615 15.299635c9.796173 9.796192 15.299622 23.08268 15.299622 36.936584l0 0c0 28.849266 -23.386963 52.23622 -52.236237 52.23622l0 0c-28.849258 0 -52.236206 -23.386955 -52.236206 -52.23622z" fill-rule="nonzero"></path><path fill="#000000" fill-opacity="0.0" d="m270.1916 341.6929l1.5118103 99.590576" fill-rule="nonzero"></path><path stroke="#000000" stroke-width="2.0" stroke-linejoin="round" stroke-linecap="butt" d="m270.1916 341.6929l1.3296814 87.59195" fill-rule="evenodd"></path><path fill="#000000" stroke="#000000" stroke-width="2.0" stroke-linecap="butt" d="m268.2182 429.335l3.4408264 9.024994l3.1653137 -9.125275z" fill-rule="evenodd"></path><path fill="#cfe2f3" d="m391.80316 290.71652l26.118103 -52.236176l68.36221 0l26.118073 52.236176l-26.118073 52.236206l-68.36221 0z" fill-rule="nonzero"></path><path stroke="#000000" stroke-width="2.0" stroke-linejoin="round" stroke-linecap="butt" d="m391.80316 290.71652l26.118103 -52.236176l68.36221 0l26.118073 52.236176l-26.118073 52.236206l-68.36221 0z" fill-rule="nonzero"></path><path fill="#000000" fill-opacity="0.0" d="m450.2126 341.6929l1.8897705 99.590576" fill-rule="nonzero"></path><path stroke="#000000" stroke-width="2.0" stroke-linejoin="round" stroke-linecap="butt" d="m450.2126 341.6929l1.6621399 87.59274" fill-rule="evenodd"></path><path fill="#000000" stroke="#000000" stroke-width="2.0" stroke-linecap="butt" d="m448.57184 429.3483l3.4750671 9.011902l3.1306763 -9.137238z" fill-rule="evenodd"></path><path fill="#000000" fill-opacity="0.0" d="m332.00262 290.71652l59.811035 0" fill-rule="nonzero"></path><path stroke="#000000" stroke-width="2.0" stroke-linejoin="round" stroke-linecap="butt" d="m332.00262 290.71652l47.811035 0" fill-rule="evenodd"></path><path fill="#000000" stroke="#000000" stroke-width="2.0" stroke-linecap="butt" d="m379.81366 294.02l9.076172 -3.3034668l-9.076172 -3.3034668z" fill-rule="evenodd"></path><path fill="#000000" fill-opacity="0.0" d="m273.23883 131.75328l1.763794 106.74016" fill-rule="nonzero"></path><path stroke="#000000" stroke-width="2.0" stroke-linejoin="round" stroke-linecap="butt" d="m273.23883 131.75328l1.5655212 94.74179" fill-rule="evenodd"></path><path fill="#000000" stroke="#000000" stroke-width="2.0" stroke-linecap="butt" d="m271.50134 226.54965l3.4529724 9.020386l3.1530762 -9.129547z" fill-rule="evenodd"></path><path fill="#000000" fill-opacity="0.0" d="m310.17545 116.45364l107.74802 122.01575" fill-rule="nonzero"></path><path stroke="#000000" stroke-width="2.0" stroke-linejoin="round" stroke-linecap="butt" d="m310.1754 116.45365l99.80499 113.02087" fill-rule="evenodd"></path><path fill="#000000" stroke="#000000" stroke-width="2.0" stroke-linecap="butt" d="m407.5042 231.66116l8.483917 4.616623l-3.5315247 -8.989899z" fill-rule="evenodd"></path></g></svg>

