<?xml version="1.0" standalone="yes"?>

<svg version="1.1" viewBox="0.0 0.0 441.6010498687664 550.8005249343832" fill="none" stroke="none" stroke-linecap="square" stroke-miterlimit="10" xmlns="http://www.w3.org/2000/svg" xmlns:xlink="http://www.w3.org/1999/xlink"><clipPath id="p.0"><path d="m0 0l441.60104 0l0 550.80054l-441.60104 0l0 -550.80054z" clip-rule="nonzero"></path></clipPath><g clip-path="url(#p.0)"><path fill="#000000" fill-opacity="0.0" d="m0 0l441.60104 0l0 550.80054l-441.60104 0z" fill-rule="nonzero"></path><path fill="#cfe2f3" d="m88.80052 459.8014l0 0c0 -7.4005127 26.99688 -13.399811 60.29921 -13.399811c33.302338 0 60.299225 5.999298 60.299225 13.399811l0 53.599304c0 7.4005127 -26.996887 13.399841 -60.299225 13.399841c-33.30233 0 -60.29921 -5.9993286 -60.29921 -13.399841z" fill-rule="nonzero"></path><path fill="#000000" fill-opacity="0.0" d="m209.39896 459.8014l0 0c0 7.4005127 -26.996887 13.399841 -60.299225 13.399841c-33.30233 0 -60.29921 -5.9993286 -60.29921 -13.399841" fill-rule="nonzero"></path><path fill="#000000" fill-opacity="0.0" d="m88.80052 459.8014l0 0c0 -7.4005127 26.99688 -13.399811 60.29921 -13.399811c33.302338 0 60.299225 5.999298 60.299225 13.399811l0 53.599304c0 7.4005127 -26.996887 13.399841 -60.299225 13.399841c-33.30233 0 -60.29921 -5.9993286 -60.29921 -13.399841z" fill-rule="nonzero"></path><path stroke="#000000" stroke-width="2.0" stroke-linejoin="round" stroke-linecap="butt" d="m209.39896 459.8014l0 0c0 7.4005127 -26.996887 13.399841 -60.299225 13.399841c-33.30233 0 -60.29921 -5.9993286 -60.29921 -13.399841" fill-rule="nonzero"></path><path stroke="#000000" stroke-width="2.0" stroke-linejoin="round" stroke-linecap="butt" d="m88.80052 459.8014l0 0c0 -7.4005127 26.99688 -13.399811 60.29921 -13.399811c33.302338 0 60.299225 5.999298 60.299225 13.399811l0 53.599304c0 7.4005127 -26.996887 13.399841 -60.299225 13.399841c-33.30233 0 -60.29921 -5.9993286 -60.29921 -13.399841z" fill-rule="nonzero"></path><path fill="#cfe2f3" d="m269.19946 459.8014l0 0c0 -7.4005127 26.996887 -13.399811 60.299225 -13.399811c33.302338 0 60.299225 5.999298 60.299225 13.399811l0 53.599304c0 7.4005127 -26.996887 13.399841 -60.299225 13.399841c-33.302338 0 -60.299225 -5.9993286 -60.299225 -13.399841z" fill-rule="nonzero"></path><path fill="#000000" fill-opacity="0.0" d="m389.7979 459.8014l0 0c0 7.4005127 -26.996887 13.399841 -60.299225 13.399841c-33.302338 0 -60.299225 -5.9993286 -60.299225 -13.399841" fill-rule="nonzero"></path><path fill="#000000" fill-opacity="0.0" d="m269.19946 459.8014l0 0c0 -7.4005127 26.996887 -13.399811 60.299225 -13.399811c33.302338 0 60.299225 5.999298 60.299225 13.399811l0 53.599304c0 7.4005127 -26.996887 13.399841 -60.299225 13.399841c-33.302338 0 -60.299225 -5.9993286 -60.299225 -13.399841z" fill-rule="nonzero"></path><path stroke="#000000" stroke-width="2.0" stroke-linejoin="round" stroke-linecap="butt" d="m389.7979 459.8014l0 0c0 7.4005127 -26.996887 13.399841 -60.299225 13.399841c-33.302338 0 -60.299225 -5.9993286 -60.299225 -13.399841" fill-rule="nonzero"></path><path stroke="#000000" stroke-width="2.0" stroke-linejoin="round" stroke-linecap="butt" d="m269.19946 459.8014l0 0c0 -7.4005127 26.996887 -13.399811 60.299225 -13.399811c33.302338 0 60.299225 5.999298 60.299225 13.399811l0 53.599304c0 7.4005127 -26.996887 13.399841 -60.299225 13.399841c-33.302338 0 -60.299225 -5.9993286 -60.299225 -13.399841z" fill-rule="nonzero"></path><path fill="#cfe2f3" d="m88.80052 295.83466l26.11811 -52.236206l68.362206 0l26.118118 52.236206l-26.118118 52.236176l-68.362206 0z" fill-rule="nonzero"></path><path stroke="#000000" stroke-width="2.0" stroke-linejoin="round" stroke-linecap="butt" d="m88.80052 295.83466l26.11811 -52.236206l68.362206 0l26.118118 52.236206l-26.118118 52.236176l-68.362206 0z" fill-rule="nonzero"></path><path fill="#cfe2f3" d="m98.39895 84.63517l0 0c0 -28.849266 23.386955 -52.23622 52.23623 -52.23622l0 0c13.853897 0 27.14038 5.5034447 36.936584 15.299637c9.796188 9.796192 15.299622 23.08268 15.299622 36.936584l0 0c0 28.849266 -23.386948 52.236214 -52.236206 52.236214l0 0c-28.849274 0 -52.23623 -23.386948 -52.23623 -52.236214z" fill-rule="nonzero"></path><path stroke="#000000" stroke-width="2.0" stroke-linejoin="round" stroke-linecap="butt" d="m98.39895 84.63517l0 0c0 -28.849266 23.386955 -52.23622 52.23623 -52.23622l0 0c13.853897 0 27.14038 5.5034447 36.936584 15.299637c9.796188 9.796192 15.299622 23.08268 15.299622 36.936584l0 0c0 28.849266 -23.386948 52.236214 -52.236206 52.236214l0 0c-28.849274 0 -52.23623 -23.386948 -52.23623 -52.236214z" fill-rule="nonzero"></path><path fill="#000000" fill-opacity="0.0" d="m147.58792 346.81104l1.5118103 99.590546" fill-rule="nonzero"></path><path stroke="#000000" stroke-width="2.0" stroke-linejoin="round" stroke-linecap="butt" d="m147.58792 346.81104l1.3296814 87.59192" fill-rule="evenodd"></path><path fill="#000000" stroke="#000000" stroke-width="2.0" stroke-linecap="butt" d="m145.61452 434.4531l3.4408417 9.025024l3.1653137 -9.125305z" fill-rule="evenodd"></path><path fill="#cfe2f3" d="m269.19946 295.83466l26.118134 -52.236206l68.36218 0l26.118134 52.236206l-26.118134 52.236176l-68.36218 0z" fill-rule="nonzero"></path><path stroke="#000000" stroke-width="2.0" stroke-linejoin="round" stroke-linecap="butt" d="m269.19946 295.83466l26.118134 -52.236206l68.36218 0l26.118134 52.236206l-26.118134 52.236176l-68.36218 0z" fill-rule="nonzero"></path><path fill="#000000" fill-opacity="0.0" d="m327.60892 346.81104l1.8897705 99.590546" fill-rule="nonzero"></path><path stroke="#000000" stroke-width="2.0" stroke-linejoin="round" stroke-linecap="butt" d="m327.60892 346.81104l1.6621094 87.59271" fill-rule="evenodd"></path><path fill="#000000" stroke="#000000" stroke-width="2.0" stroke-linecap="butt" d="m325.96814 434.4664l3.4750671 9.011902l3.1306763 -9.137238z" fill-rule="evenodd"></path><path fill="#000000" fill-opacity="0.0" d="m150.63518 136.87138l1.7637787 106.74016" fill-rule="nonzero"></path><path stroke="#000000" stroke-width="2.0" stroke-linejoin="round" stroke-linecap="butt" d="m150.63518 136.87138l1.565506 94.741806" fill-rule="evenodd"></path><path fill="#000000" stroke="#000000" stroke-width="2.0" stroke-linecap="butt" d="m148.89767 231.66777l3.4529724 9.0203705l3.153061 -9.129532z" fill-rule="evenodd"></path><path fill="#000000" fill-opacity="0.0" d="m187.57176 121.571754l107.74803 122.015755" fill-rule="nonzero"></path><path stroke="#000000" stroke-width="2.0" stroke-linejoin="round" stroke-linecap="butt" d="m187.57175 121.571754l99.80496 113.02087" fill-rule="evenodd"></path><path fill="#000000" stroke="#000000" stroke-width="2.0" stroke-linecap="butt" d="m284.9005 236.77927l8.483948 4.616623l-3.5315552 -8.989899z" fill-rule="evenodd"></path></g></svg>

