<?xml version="1.0" standalone="yes"?>

<svg version="1.1" viewBox="0.0 0.0 632.0 742.0" fill="none" stroke="none" stroke-linecap="square" stroke-miterlimit="10" xmlns="http://www.w3.org/2000/svg" xmlns:xlink="http://www.w3.org/1999/xlink"><clipPath id="p.0"><path d="m0 0l632.0 0l0 742.0l-632.0 0l0 -742.0z" clip-rule="nonzero"></path></clipPath><g clip-path="url(#p.0)"><path fill="#000000" fill-opacity="0.0" d="m0 0l632.0 0l0 742.0l-632.0 0z" fill-rule="nonzero"></path><path fill="#cfe2f3" d="m165.5 609.4287l0 0c0 -7.4005127 26.996872 -13.399841 60.29921 -13.399841c33.302353 0 60.29921 5.9993286 60.29921 13.399841l0 53.599304c0 7.4005127 -26.996857 13.39978 -60.29921 13.39978c-33.302338 0 -60.29921 -5.9992676 -60.29921 -13.39978z" fill-rule="nonzero"></path><path fill="#000000" fill-opacity="0.0" d="m286.09842 609.4287l0 0c0 7.4005127 -26.996857 13.39978 -60.29921 13.39978c-33.302338 0 -60.29921 -5.9992676 -60.29921 -13.39978" fill-rule="nonzero"></path><path fill="#000000" fill-opacity="0.0" d="m165.5 609.4287l0 0c0 -7.4005127 26.996872 -13.399841 60.29921 -13.399841c33.302353 0 60.29921 5.9993286 60.29921 13.399841l0 53.599304c0 7.4005127 -26.996857 13.39978 -60.29921 13.39978c-33.302338 0 -60.29921 -5.9992676 -60.29921 -13.39978z" fill-rule="nonzero"></path><path stroke="#000000" stroke-width="2.0" stroke-linejoin="round" stroke-linecap="butt" d="m286.09842 609.4287l0 0c0 7.4005127 -26.996857 13.39978 -60.29921 13.39978c-33.302338 0 -60.29921 -5.9992676 -60.29921 -13.39978" fill-rule="nonzero"></path><path stroke="#000000" stroke-width="2.0" stroke-linejoin="round" stroke-linecap="butt" d="m165.5 609.4287l0 0c0 -7.4005127 26.996872 -13.399841 60.29921 -13.399841c33.302353 0 60.29921 5.9993286 60.29921 13.399841l0 53.599304c0 7.4005127 -26.996857 13.39978 -60.29921 13.39978c-33.302338 0 -60.29921 -5.9992676 -60.29921 -13.39978z" fill-rule="nonzero"></path><path fill="#cfe2f3" d="m345.89896 609.4287l0 0c0 -7.4005127 26.996857 -13.399841 60.299194 -13.399841c33.302338 0 60.299225 5.9993286 60.299225 13.399841l0 53.599304c0 7.4005127 -26.996887 13.39978 -60.299225 13.39978c-33.302338 0 -60.299194 -5.9992676 -60.299194 -13.39978z" fill-rule="nonzero"></path><path fill="#000000" fill-opacity="0.0" d="m466.49738 609.4287l0 0c0 7.4005127 -26.996887 13.39978 -60.299225 13.39978c-33.302338 0 -60.299194 -5.9992676 -60.299194 -13.39978" fill-rule="nonzero"></path><path fill="#000000" fill-opacity="0.0" d="m345.89896 609.4287l0 0c0 -7.4005127 26.996857 -13.399841 60.299194 -13.399841c33.302338 0 60.299225 5.9993286 60.299225 13.399841l0 53.599304c0 7.4005127 -26.996887 13.39978 -60.299225 13.39978c-33.302338 0 -60.299194 -5.9992676 -60.299194 -13.39978z" fill-rule="nonzero"></path><path stroke="#000000" stroke-width="2.0" stroke-linejoin="round" stroke-linecap="butt" d="m466.49738 609.4287l0 0c0 7.4005127 -26.996887 13.39978 -60.299225 13.39978c-33.302338 0 -60.299194 -5.9992676 -60.299194 -13.39978" fill-rule="nonzero"></path><path stroke="#000000" stroke-width="2.0" stroke-linejoin="round" stroke-linecap="butt" d="m345.89896 609.4287l0 0c0 -7.4005127 26.996857 -13.399841 60.299194 -13.399841c33.302338 0 60.299225 5.9993286 60.299225 13.399841l0 53.599304c0 7.4005127 -26.996887 13.39978 -60.299225 13.39978c-33.302338 0 -60.299194 -5.9992676 -60.299194 -13.39978z" fill-rule="nonzero"></path><path fill="#cfe2f3" d="m225.79921 417.16272l52.23619 26.118134l0 68.36218l-52.23619 26.118134l-52.23619 -26.118134l0 -68.36218z" fill-rule="nonzero"></path><path stroke="#000000" stroke-width="2.0" stroke-linejoin="round" stroke-linecap="butt" d="m225.79921 417.16272l52.23619 26.118134l0 68.36218l-52.23619 26.118134l-52.23619 -26.118134l0 -68.36218z" fill-rule="nonzero"></path><path fill="#cfe2f3" d="m98.39895 84.63517l0 0c0 -28.849266 23.386955 -52.23622 52.23623 -52.23622l0 0c13.853897 0 27.14038 5.5034447 36.936584 15.299637c9.796188 9.796192 15.299622 23.08268 15.299622 36.936584l0 0c0 28.849266 -23.386948 52.236214 -52.236206 52.236214l0 0c-28.849274 0 -52.23623 -23.386948 -52.23623 -52.236214z" fill-rule="nonzero"></path><path stroke="#000000" stroke-width="2.0" stroke-linejoin="round" stroke-linecap="butt" d="m98.39895 84.63517l0 0c0 -28.849266 23.386955 -52.23622 52.23623 -52.23622l0 0c13.853897 0 27.14038 5.5034447 36.936584 15.299637c9.796188 9.796192 15.299622 23.08268 15.299622 36.936584l0 0c0 28.849266 -23.386948 52.236214 -52.236206 52.236214l0 0c-28.849274 0 -52.23623 -23.386948 -52.23623 -52.236214z" fill-rule="nonzero"></path><path fill="#000000" fill-opacity="0.0" d="m225.79921 537.76117l0 58.2677" fill-rule="nonzero"></path><path stroke="#000000" stroke-width="2.0" stroke-linejoin="round" stroke-linecap="butt" d="m225.79921 537.76117l0 46.2677" fill-rule="evenodd"></path><path fill="#000000" stroke="#000000" stroke-width="2.0" stroke-linecap="butt" d="m222.49574 584.0289l3.3034668 9.076172l3.3034668 -9.076172z" fill-rule="evenodd"></path><path fill="#cfe2f3" d="m406.19815 417.16272l52.236206 26.118134l0 68.36218l-52.236206 26.118134l-52.236176 -26.118134l0 -68.36218z" fill-rule="nonzero"></path><path stroke="#000000" stroke-width="2.0" stroke-linejoin="round" stroke-linecap="butt" d="m406.19815 417.16272l52.236206 26.118134l0 68.36218l-52.236206 26.118134l-52.236176 -26.118134l0 -68.36218z" fill-rule="nonzero"></path><path fill="#cfe2f3" d="m263.60104 84.63517l0 0c0 -28.849266 23.386963 -52.23622 52.236237 -52.23622l0 0c13.853912 0 27.14038 5.5034447 36.936584 15.299637c9.796173 9.796192 15.299622 23.08268 15.299622 36.936584l0 0c0 28.849266 -23.386963 52.236214 -52.236206 52.236214l0 0c-28.849274 0 -52.236237 -23.386948 -52.236237 -52.236214z" fill-rule="nonzero"></path><path stroke="#000000" stroke-width="2.0" stroke-linejoin="round" stroke-linecap="butt" d="m263.60104 84.63517l0 0c0 -28.849266 23.386963 -52.23622 52.236237 -52.23622l0 0c13.853912 0 27.14038 5.5034447 36.936584 15.299637c9.796173 9.796192 15.299622 23.08268 15.299622 36.936584l0 0c0 28.849266 -23.386963 52.236214 -52.236206 52.236214l0 0c-28.849274 0 -52.236237 -23.386948 -52.236237 -52.236214z" fill-rule="nonzero"></path><path fill="#cfe2f3" d="m444.55118 84.63517l0 0c0 -28.849266 23.386963 -52.23622 52.236237 -52.23622l0 0c13.853882 0 27.14038 5.5034447 36.936584 15.299637c9.796204 9.796192 15.299622 23.08268 15.299622 36.936584l0 0c0 28.849266 -23.386963 52.236214 -52.236206 52.236214l0 0c-28.849274 0 -52.236237 -23.386948 -52.236237 -52.236214z" fill-rule="nonzero"></path><path stroke="#000000" stroke-width="2.0" stroke-linejoin="round" stroke-linecap="butt" d="m444.55118 84.63517l0 0c0 -28.849266 23.386963 -52.23622 52.236237 -52.23622l0 0c13.853882 0 27.14038 5.5034447 36.936584 15.299637c9.796204 9.796192 15.299622 23.08268 15.299622 36.936584l0 0c0 28.849266 -23.386963 52.236214 -52.236206 52.236214l0 0c-28.849274 0 -52.236237 -23.386948 -52.236237 -52.236214z" fill-rule="nonzero"></path><path fill="#000000" d="m387.84122 76.0105l0 0c0 -2.8962326 2.3478699 -5.244095 5.2440796 -5.244095l0 0c1.3908386 0 2.724701 0.5525055 3.7081604 1.5359573c0.98342896 0.9834595 1.5359497 2.3173141 1.5359497 3.7081375l0 0c0 2.8962326 -2.3478699 5.244095 -5.24411 5.244095l0 0c-2.8962097 0 -5.2440796 -2.3478622 -5.2440796 -5.244095z" fill-rule="nonzero"></path><path stroke="#000000" stroke-width="2.0" stroke-linejoin="round" stroke-linecap="butt" d="m387.84122 76.0105l0 0c0 -2.8962326 2.3478699 -5.244095 5.2440796 -5.244095l0 0c1.3908386 0 2.724701 0.5525055 3.7081604 1.5359573c0.98342896 0.9834595 1.5359497 2.3173141 1.5359497 3.7081375l0 0c0 2.8962326 -2.3478699 5.244095 -5.24411 5.244095l0 0c-2.8962097 0 -5.2440796 -2.3478622 -5.2440796 -5.244095z" fill-rule="nonzero"></path><path fill="#000000" d="m401.56827 76.0105l0 0c0 -2.8962326 2.3478699 -5.244095 5.24411 -5.244095l0 0c1.3908081 0 2.7246704 0.5525055 3.70813 1.5359573c0.9834595 0.9834595 1.5359497 2.3173141 1.5359497 3.7081375l0 0c0 2.8962326 -2.3478394 5.244095 -5.2440796 5.244095l0 0c-2.8962402 0 -5.24411 -2.3478622 -5.24411 -5.244095z" fill-rule="nonzero"></path><path stroke="#000000" stroke-width="2.0" stroke-linejoin="round" stroke-linecap="butt" d="m401.56827 76.0105l0 0c0 -2.8962326 2.3478699 -5.244095 5.24411 -5.244095l0 0c1.3908081 0 2.7246704 0.5525055 3.70813 1.5359573c0.9834595 0.9834595 1.5359497 2.3173141 1.5359497 3.7081375l0 0c0 2.8962326 -2.3478394 5.244095 -5.2440796 5.244095l0 0c-2.8962402 0 -5.24411 -2.3478622 -5.24411 -5.244095z" fill-rule="nonzero"></path><path fill="#000000" d="m415.29535 76.0105l0 0c0 -2.8962326 2.3478699 -5.244095 5.24411 -5.244095l0 0c1.3908081 0 2.7246704 0.5525055 3.70813 1.5359573c0.9834595 0.9834595 1.5359497 2.3173141 1.5359497 3.7081375l0 0c0 2.8962326 -2.3478699 5.244095 -5.2440796 5.244095l0 0c-2.8962402 0 -5.24411 -2.3478622 -5.24411 -5.244095z" fill-rule="nonzero"></path><path stroke="#000000" stroke-width="2.0" stroke-linejoin="round" stroke-linecap="butt" d="m415.29535 76.0105l0 0c0 -2.8962326 2.3478699 -5.244095 5.24411 -5.244095l0 0c1.3908081 0 2.7246704 0.5525055 3.70813 1.5359573c0.9834595 0.9834595 1.5359497 2.3173141 1.5359497 3.7081375l0 0c0 2.8962326 -2.3478699 5.244095 -5.2440796 5.244095l0 0c-2.8962402 0 -5.24411 -2.3478622 -5.24411 -5.244095z" fill-rule="nonzero"></path><path fill="#000000" fill-opacity="0.0" d="m406.19815 537.76117l0 58.2677" fill-rule="nonzero"></path><path stroke="#000000" stroke-width="2.0" stroke-linejoin="round" stroke-linecap="butt" d="m406.19815 537.76117l0 46.2677" fill-rule="evenodd"></path><path fill="#000000" stroke="#000000" stroke-width="2.0" stroke-linecap="butt" d="m402.89468 584.0289l3.3034668 9.076172l3.3034668 -9.076172z" fill-rule="evenodd"></path><path fill="#cfe2f3" d="m315.9987 238.29659l52.236206 26.118118l0 68.36221l-52.236206 26.118103l-52.236206 -26.118103l0 -68.36221z" fill-rule="nonzero"></path><path stroke="#000000" stroke-width="2.0" stroke-linejoin="round" stroke-linecap="butt" d="m315.9987 238.29659l52.236206 26.118118l0 68.36221l-52.236206 26.118103l-52.236206 -26.118103l0 -68.36221z" fill-rule="nonzero"></path><path fill="#000000" fill-opacity="0.0" d="m263.76248 332.77692l-37.952744 84.37793" fill-rule="nonzero"></path><path stroke="#000000" stroke-width="2.0" stroke-linejoin="round" stroke-linecap="butt" d="m263.76248 332.77692l-33.030243 73.43405" fill-rule="evenodd"></path><path fill="#000000" stroke="#000000" stroke-width="2.0" stroke-linecap="butt" d="m227.71951 404.85583l-0.71040344 9.632538l6.735855 -6.9223022z" fill-rule="evenodd"></path><path fill="#000000" fill-opacity="0.0" d="m368.2349 332.77692l37.95276 84.37793" fill-rule="nonzero"></path><path stroke="#000000" stroke-width="2.0" stroke-linejoin="round" stroke-linecap="butt" d="m368.23486 332.77692l33.030273 73.43405" fill-rule="evenodd"></path><path fill="#000000" stroke="#000000" stroke-width="2.0" stroke-linecap="butt" d="m398.25238 407.56607l6.7358704 6.9223022l-0.7103882 -9.632538z" fill-rule="evenodd"></path><path fill="#000000" fill-opacity="0.0" d="m150.63518 136.87138l113.133865 127.55907" fill-rule="nonzero"></path><path stroke="#000000" stroke-width="2.0" stroke-linejoin="round" stroke-linecap="butt" d="m150.63518 136.87138l105.1714 118.581345" fill-rule="evenodd"></path><path fill="#000000" stroke="#000000" stroke-width="2.0" stroke-linecap="butt" d="m253.33511 257.6447l8.493866 4.598297l-3.5509338 -8.982254z" fill-rule="evenodd"></path><path fill="#000000" fill-opacity="0.0" d="m315.83728 136.87138l0.1574707 101.41733" fill-rule="nonzero"></path><path stroke="#000000" stroke-width="2.0" stroke-linejoin="round" stroke-linecap="butt" d="m315.83728 136.87138l0.13882446 89.41734" fill-rule="evenodd"></path><path fill="#000000" stroke="#000000" stroke-width="2.0" stroke-linecap="butt" d="m312.67267 226.29385l3.3175354 9.07106l3.2893677 -9.081314z" fill-rule="evenodd"></path><path fill="#000000" fill-opacity="0.0" d="m496.7874 136.87138l-128.56696 127.55907" fill-rule="nonzero"></path><path stroke="#000000" stroke-width="2.0" stroke-linejoin="round" stroke-linecap="butt" d="m496.7874 136.87138l-120.04831 119.10722" fill-rule="evenodd"></path><path fill="#000000" stroke="#000000" stroke-width="2.0" stroke-linecap="butt" d="m374.41238 253.63354l-4.1163635 8.73761l8.769745 -4.047455z" fill-rule="evenodd"></path></g></svg>

